<svg width="2095" height="278" viewBox="0 0 2095 278" fill="none" xmlns="http://www.w3.org/2000/svg">
<path d="M109.505 192.399L92.4085 223.147H146.792C138.244 207.627 128.222 192.838 116.874 179.367C104.789 164.871 91.2294 151.693 76.4912 139.833C55.4156 122.995 31.9819 109.084 6.48481 98.9813L32.2766 52.5654C57.3316 63.2543 80.9127 76.8715 102.43 93.1244C117.316 104.252 131.317 116.698 143.992 130.316C169.489 157.404 190.565 188.738 205.745 223.147C213.409 240.425 219.599 258.582 224.168 277.324H0L30.0659 223.147L69.5643 152.133C84.3025 164.139 97.7142 177.61 109.505 192.399Z" fill="black"/>
<path d="M332.785 277.324H277.959C274.127 258.728 268.821 240.572 262.189 223.148C242.293 169.703 210.606 121.97 170.37 82.875L150.326 118.895C137.504 105.424 123.503 93.1246 108.617 81.9965L128.072 47.148L154.158 0C169.339 10.5424 183.635 22.1098 197.341 34.5557C253.051 85.2178 295.645 149.936 319.226 223.148C324.827 240.718 329.395 258.728 332.785 277.324Z" fill="black"/>
<path fill-rule="evenodd" clip-rule="evenodd" d="M559.091 277.324H593.926L514.177 133.942H485.026L406.666 277.324H438.829L456.055 244.176H541.864L559.091 277.324ZM414.001 272.974L487.605 138.295H511.618L586.527 272.974H586.529L511.619 138.293H487.606L414.001 272.974H414.001ZM462.81 222.599H535.369L535.37 222.601H462.809L462.81 222.599ZM470.017 218.249L499.09 163.03L528.164 218.249H470.017ZM734.202 270.973L734.241 270.937L734.279 270.901C739.487 265.929 741.368 257.337 741.368 246.873V230.212L711.787 224.666V251.919H643.228V183.099H711.787V207.615L741.368 202.808V199.108C741.368 191.725 741.127 185.62 740.626 180.841C740.144 176.233 739.373 172.305 738 169.683L737.994 169.671C733.468 161.096 723.027 157.955 709.873 157.955H644.881C634.266 157.955 625.604 159.744 620.474 164.64L620.438 164.675L620.402 164.711C615.429 169.684 613.647 178.239 613.647 188.668V246.873C613.647 252.314 614.119 257.065 615.16 261.028C616.195 264.973 617.868 268.418 620.478 270.904L620.515 270.939L620.552 270.973C625.676 275.631 634.298 277.324 644.881 277.324H709.873C720.456 277.324 729.078 275.631 734.202 270.973ZM716.137 229.91L737.017 233.825V246.875C737.017 253.266 736.275 258.376 734.792 262.204C736.276 258.375 737.018 253.265 737.018 246.873V233.822L716.137 229.907V229.91ZM638.878 256.269H716.136V256.272H638.877V178.752H638.878V256.269ZM737.018 199.108L737.017 199.108C737.017 184.493 736.06 175.358 734.146 171.704C730.84 165.44 722.748 162.308 709.872 162.308H644.88C634.44 162.308 627.305 164.135 623.477 167.789C622.222 169.045 621.182 170.691 620.357 172.727C621.182 170.69 622.222 169.043 623.478 167.787C627.306 164.133 634.441 162.306 644.881 162.306H709.873C722.749 162.306 730.84 165.438 734.147 171.702C736.061 175.356 737.018 184.491 737.018 199.108ZM901.565 270.973L901.604 270.937L901.642 270.9C906.85 265.929 908.731 257.337 908.731 246.873V157.955H878.888V251.919H806.676V157.955H777.094V246.873C777.094 257.337 778.975 265.929 784.183 270.9L784.221 270.937L784.261 270.973C789.385 275.631 798.006 277.324 808.59 277.324H877.235C887.819 277.324 896.441 275.631 901.565 270.973ZM883.238 256.269H802.325V162.306H781.445V162.308H802.324V256.272H883.238V256.269ZM883.239 162.308H904.38V246.875C904.38 253.482 903.587 258.719 902.002 262.587C903.588 258.719 904.381 253.481 904.381 246.873V162.306H883.239V162.308ZM1013.13 183.099H1065.6V157.955H931.35V183.099H983.552V277.324H1013.13V183.099ZM935.7 162.308H1061.24V178.749H1061.25V162.306H935.7V162.308ZM1008.78 272.974H1008.78V178.752H1008.78V272.974ZM1088.32 277.324H1209.51V252.441H1117.9V227.993H1172.45V202.849H1117.9V183.099H1208.47V157.955H1088.32V277.324ZM1113.55 223.645V256.791H1205.16V272.974H1205.16V256.794H1113.55V223.645H1113.55ZM1168.1 223.643H1168.1V207.202H1113.55V178.752H1113.55V207.199H1168.1V223.643ZM1204.12 178.749H1204.12V162.308H1092.67V162.306H1204.12V178.749ZM1425.08 277.324H1459.91L1380.16 133.942H1351.01L1272.65 277.324H1304.82L1322.04 244.176H1407.85L1425.08 277.324ZM1452.51 272.974H1452.52L1377.61 138.293H1353.59L1353.59 138.295H1377.61L1452.51 272.974ZM1401.36 222.599L1401.36 222.601H1328.8L1328.8 222.599H1401.36ZM1336 218.249L1365.08 163.03L1394.15 218.249H1336ZM1598.48 277.324H1618.84V157.955H1590.83V229.124C1590.83 231.298 1590.88 233.451 1590.99 235.582C1589.58 234.132 1588.11 232.726 1586.59 231.366L1504.17 157.955H1482.24V277.324H1510.26V204.328C1510.26 202.482 1510.22 200.636 1510.14 198.79C1511.52 200.179 1512.98 201.548 1514.52 202.898L1514.53 202.904L1598.48 277.324ZM1597 249.741C1595.31 247.279 1593.49 244.918 1591.56 242.66C1589.13 239.813 1586.5 237.128 1583.69 234.605L1502.52 162.306H1486.59V162.308H1502.52L1583.69 234.608C1588.74 239.132 1593.17 244.178 1597 249.746C1597 249.745 1597 249.743 1597 249.741ZM1595.18 162.308H1614.49V272.974H1614.49V162.306H1595.18V162.308ZM1505.91 272.974H1505.91V204.331C1505.91 197.718 1505.39 191.106 1504.34 184.494C1504.34 184.495 1504.34 184.496 1504.34 184.497C1504.82 187.527 1505.19 190.558 1505.45 193.588C1505.76 197.168 1505.91 200.748 1505.91 204.328V272.974ZM1789.3 270.973L1789.34 270.937L1789.38 270.9C1794.59 265.929 1796.47 257.337 1796.47 246.873V206.764H1721.73V230.603H1766.89V251.919H1688.15V183.099H1766.89V199.065L1796.47 193.889V190.234C1796.47 179.344 1794.71 170.493 1789.82 165.341C1784.82 159.897 1775.9 157.955 1764.97 157.955H1690.06C1679.57 157.955 1671 159.766 1665.73 164.574L1665.69 164.607L1665.66 164.64C1660.45 169.612 1658.57 178.204 1658.57 188.668V246.873C1658.57 257.337 1660.45 265.929 1665.66 270.9L1665.7 270.937L1665.74 270.973C1670.86 275.631 1679.48 277.324 1690.06 277.324H1764.97C1775.56 277.324 1784.18 275.631 1789.3 270.973ZM1726.08 211.117H1792.12V246.875C1792.12 249.441 1792 251.8 1791.76 253.953C1792 251.8 1792.12 249.44 1792.12 246.873V211.114H1726.08V211.117ZM1683.8 256.269H1771.24V256.272H1683.8V178.752H1683.8V256.269ZM1792.12 190.234L1792.12 190.234C1792.12 179.447 1790.29 172.139 1786.64 168.311C1782.98 164.309 1775.76 162.308 1764.97 162.308H1690.06C1679.8 162.308 1672.66 164.135 1668.66 167.789C1668.53 167.911 1668.41 168.037 1668.28 168.167C1668.41 168.036 1668.53 167.91 1668.66 167.787C1672.66 164.133 1679.8 162.306 1690.06 162.306H1764.97C1775.76 162.306 1782.98 164.307 1786.64 168.309C1790.29 172.137 1792.12 179.445 1792.12 190.234ZM1834 277.324H1949.71V251.919H1863.58V157.955H1834V277.324ZM1859.23 162.306V256.269H1945.36V272.974H1945.36V256.272H1859.23V162.308H1838.35V162.306H1859.23ZM1973.68 277.324H2094.87V252.441H2003.26V227.993H2057.81V202.849H2003.26V183.099H2093.83V157.955H1973.68V277.324ZM1998.91 223.645V256.791H2090.52V272.974H2090.52V256.794H1998.91V223.645H1998.91ZM2053.46 223.643H2053.46V207.202H1998.91V178.752H1998.91V207.199H2053.46V223.643ZM2089.48 178.749H2089.48V162.308H1978.03V162.306H2089.48V178.749Z" fill="black"/>
</svg>
